<svg width="32" height="32" viewBox="0 0 32 32" fill="none" xmlns="http://www.w3.org/2000/svg">
<path d="M10.5856 28.7269C10.2106 28.3519 10 27.8433 10 27.3129C10 26.7826 10.2106 26.274 10.5856 25.8989L20.4856 15.9989L10.5856 6.09892C10.2213 5.72172 10.0197 5.21651 10.0242 4.69212C10.0288 4.16773 10.2391 3.6661 10.6099 3.29528C10.9808 2.92447 11.4824 2.71413 12.0068 2.70958C12.5312 2.70502 13.0364 2.90661 13.4136 3.27092L24.7276 14.5849C25.1025 14.96 25.3131 15.4686 25.3131 15.9989C25.3131 16.5293 25.1025 17.0379 24.7276 17.4129L13.4136 28.7269C13.0385 29.1019 12.5299 29.3125 11.9996 29.3125C11.4692 29.3125 10.9606 29.1019 10.5856 28.7269Z" fill="#141414"/>
</svg>
