<svg width="7" height="10" viewBox="0 0 7 10" fill="none" xmlns="http://www.w3.org/2000/svg">
<path d="M0.96959 9.7726C0.828987 9.63195 0.75 9.44122 0.75 9.24235C0.75 9.04347 0.828987 8.85274 0.96959 8.7121L4.68209 4.9996L0.96959 1.2871C0.832971 1.14564 0.757375 0.956192 0.759084 0.759544C0.760793 0.562897 0.839669 0.374787 0.978726 0.235731C1.11778 0.0966749 1.30589 0.0177994 1.50254 0.0160904C1.69919 0.0143823 1.88864 0.0899772 2.03009 0.226596L6.27284 4.46935C6.41344 4.60999 6.49243 4.80072 6.49243 4.9996C6.49243 5.19847 6.41344 5.3892 6.27284 5.52985L2.03009 9.7726C1.88944 9.9132 1.69871 9.99219 1.49984 9.99219C1.30097 9.99219 1.11024 9.9132 0.96959 9.7726Z" fill="white"/>
</svg>
