<svg width="32" height="32" viewBox="0 0 32 32" fill="none" xmlns="http://www.w3.org/2000/svg">
<path fill-rule="evenodd" clip-rule="evenodd" d="M2.9987 3.05668C2.74833 2.96863 2.47324 2.98364 2.23395 3.09841C1.99465 3.21318 1.81075 3.41832 1.7227 3.66868C1.63464 3.91904 1.64966 4.19413 1.76443 4.43343C1.8792 4.67273 2.08433 4.85663 2.3347 4.94468L2.68403 5.06601C3.57336 5.37935 4.1587 5.58601 4.58936 5.79801C4.99336 5.99668 5.17203 6.15801 5.28936 6.32868C5.40936 6.50468 5.5027 6.74735 5.55603 7.23135C5.60936 7.73801 5.6107 8.39801 5.6107 9.38468V13.014C5.6107 14.9513 5.62936 16.3473 5.81203 17.414C6.0067 18.5527 6.39603 19.3687 7.12536 20.1367C7.91736 20.9727 8.92003 21.3367 10.116 21.5047C11.26 21.6673 12.7134 21.6673 14.5067 21.6673H21.7147C22.704 21.6673 23.536 21.6673 24.208 21.5847C24.924 21.498 25.5747 21.306 26.144 20.8433C26.712 20.3793 27.0307 19.7807 27.26 19.098C27.4774 18.4553 27.6454 17.6407 27.8454 16.6713L28.5227 13.3793L28.5254 13.3727L28.5387 13.3033C28.7587 12.2033 28.9427 11.278 28.9894 10.534C29.0374 9.75268 28.948 8.98201 28.4387 8.32068C28.1254 7.91268 27.6854 7.68201 27.284 7.54201C26.8505 7.39926 26.4024 7.30535 25.948 7.26201C25.032 7.16068 23.9187 7.16068 22.828 7.16068H7.55603L7.5427 7.01668C7.4707 6.35401 7.31603 5.75001 6.9387 5.20068C6.56003 4.64601 6.05603 4.29135 5.46936 4.00201C4.92003 3.73268 4.22136 3.48735 3.3987 3.19801L2.9987 3.05668ZM7.61203 9.16068H22.7854C23.9267 9.16068 24.932 9.16201 25.7254 9.25001C26.12 9.29535 26.4147 9.35668 26.6214 9.42868C26.7053 9.45379 26.7846 9.49253 26.856 9.54335C26.9387 9.65268 27.0267 9.85001 26.992 10.4113C26.956 11.0033 26.8014 11.7927 26.564 12.9793V12.982L25.8974 16.2087C25.684 17.2527 25.5374 17.946 25.3654 18.4593C25.2014 18.9473 25.0467 19.1567 24.88 19.2927C24.7134 19.4287 24.476 19.538 23.9667 19.5993C23.428 19.666 22.72 19.6673 21.6547 19.6673H14.584C12.6947 19.6673 11.384 19.6647 10.3974 19.5247C9.4427 19.39 8.94003 19.1447 8.57603 18.7607C8.14936 18.31 7.9187 17.87 7.7827 17.0767C7.63603 16.21 7.6107 14.9993 7.6107 13.014L7.61203 9.16068ZM10 29.0007C9.20438 29.0007 8.44132 28.6846 7.87871 28.122C7.3161 27.5594 7.00003 26.7963 7.00003 26.0007C7.00003 25.205 7.3161 24.442 7.87871 23.8794C8.44132 23.3168 9.20438 23.0007 10 23.0007C10.7957 23.0007 11.5587 23.3168 12.1213 23.8794C12.684 24.442 13 25.205 13 26.0007C13 26.7963 12.684 27.5594 12.1213 28.122C11.5587 28.6846 10.7957 29.0007 10 29.0007ZM9.00003 26.0007C9.00003 26.2659 9.10539 26.5203 9.29292 26.7078C9.48046 26.8953 9.73481 27.0007 10 27.0007C10.2652 27.0007 10.5196 26.8953 10.7071 26.7078C10.8947 26.5203 11 26.2659 11 26.0007C11 25.7355 10.8947 25.4811 10.7071 25.2936C10.5196 25.106 10.2652 25.0007 10 25.0007C9.73481 25.0007 9.48046 25.106 9.29292 25.2936C9.10539 25.4811 9.00003 25.7355 9.00003 26.0007ZM22 29.0007C21.2044 29.0007 20.4413 28.6846 19.8787 28.122C19.3161 27.5594 19 26.7963 19 26.0007C19 25.205 19.3161 24.442 19.8787 23.8794C20.4413 23.3168 21.2044 23.0007 22 23.0007C22.7957 23.0007 23.5587 23.3168 24.1213 23.8794C24.684 24.442 25 25.205 25 26.0007C25 26.7963 24.684 27.5594 24.1213 28.122C23.5587 28.6846 22.7957 29.0007 22 29.0007ZM21 26.0007C21 26.2659 21.1054 26.5203 21.2929 26.7078C21.4805 26.8953 21.7348 27.0007 22 27.0007C22.2652 27.0007 22.5196 26.8953 22.7071 26.7078C22.8947 26.5203 23 26.2659 23 26.0007C23 25.7355 22.8947 25.4811 22.7071 25.2936C22.5196 25.106 22.2652 25.0007 22 25.0007C21.7348 25.0007 21.4805 25.106 21.2929 25.2936C21.1054 25.4811 21 25.7355 21 26.0007Z" fill="#141414"/>
</svg>
