<svg width="32" height="32" viewBox="0 0 32 32" fill="none" xmlns="http://www.w3.org/2000/svg">
<path d="M4.625 11.625H27.375M4.625 12.5H27.375M8.125 18.625H15.125M8.125 21.25H11.625M7.25 24.75H24.75C25.4462 24.75 26.1139 24.4734 26.6062 23.9812C27.0984 23.4889 27.375 22.8212 27.375 22.125V9.875C27.375 9.17881 27.0984 8.51113 26.6062 8.01884C26.1139 7.52656 25.4462 7.25 24.75 7.25H7.25C6.55381 7.25 5.88613 7.52656 5.39384 8.01884C4.90156 8.51113 4.625 9.17881 4.625 9.875V22.125C4.625 22.8212 4.90156 23.4889 5.39384 23.9812C5.88613 24.4734 6.55381 24.75 7.25 24.75Z" stroke="#141414" stroke-width="1.5" stroke-linecap="round" stroke-linejoin="round"/>
</svg>
