<svg width="32" height="32" viewBox="0 0 32 32" fill="none" xmlns="http://www.w3.org/2000/svg">
<g clip-path="url(#clip0_519_8562)">
<path d="M27.3346 8H4.66797M25.112 11.3333L24.4986 20.5333C24.2626 24.072 24.1453 25.8413 22.992 26.92C21.8386 27.9987 20.064 28 16.5173 28H15.4853C11.9386 28 10.164 28 9.01064 26.92C7.8573 25.8413 7.73864 24.072 7.50397 20.5333L6.89064 11.3333M12.668 14.6667L13.3346 21.3333M19.3346 14.6667L18.668 21.3333" stroke="#141414" stroke-width="1.5" stroke-linecap="round"/>
<path d="M8.66797 8H8.81464C9.35123 7.98629 9.8712 7.81096 10.3065 7.49695C10.7419 7.18294 11.0723 6.74485 11.2546 6.24L11.3 6.10267L11.4293 5.71467C11.54 5.38267 11.596 5.21733 11.6693 5.076C11.8136 4.79919 12.0206 4.55999 12.2739 4.37755C12.5272 4.1951 12.8197 4.07448 13.128 4.02533C13.284 4 13.4586 4 13.808 4H18.1946C18.544 4 18.7186 4 18.8746 4.02533C19.1829 4.07448 19.4754 4.1951 19.7287 4.37755C19.982 4.55999 20.189 4.79919 20.3333 5.076C20.4066 5.21733 20.4626 5.38267 20.5733 5.71467L20.7026 6.10267C20.8716 6.66436 21.2211 7.15468 21.6969 7.49768C22.1727 7.84069 22.7483 8.01724 23.3346 8" stroke="#141414" stroke-width="1.5"/>
</g>
<defs>
<clipPath id="clip0_519_8562">
<rect width="32" height="32" fill="white"/>
</clipPath>
</defs>
</svg>
