<svg width="32" height="32" viewBox="0 0 32 32" fill="none" xmlns="http://www.w3.org/2000/svg">
<path d="M16.25 21.25V22.25V21.25ZM21.25 16.25H22.25H21.25ZM16.25 11.25V10.25V11.25ZM11.25 16.25H10.25H11.25ZM11.25 5V4V5ZM22.3851 8.71869C22.0136 9.12734 22.0437 9.75979 22.4523 10.1313C22.861 10.5028 23.4934 10.4727 23.8649 10.0641L22.3851 8.71869ZM23.8809 10.0465C24.2524 9.63782 24.2223 9.00537 23.8137 8.63385C23.405 8.26234 22.7726 8.29244 22.4011 8.70109L23.8809 10.0465ZM16.25 22.25C17.8413 22.25 19.3674 21.6179 20.4926 20.4926L19.0784 19.0784C18.3283 19.8286 17.3109 20.25 16.25 20.25V22.25ZM20.4926 20.4926C21.6179 19.3674 22.25 17.8413 22.25 16.25H20.25C20.25 17.3109 19.8286 18.3283 19.0784 19.0784L20.4926 20.4926ZM22.25 16.25C22.25 14.6587 21.6179 13.1326 20.4926 12.0074L19.0784 13.4216C19.8286 14.1717 20.25 15.1891 20.25 16.25H22.25ZM20.4926 12.0074C19.3674 10.8821 17.8413 10.25 16.25 10.25V12.25C17.3109 12.25 18.3283 12.6714 19.0784 13.4216L20.4926 12.0074ZM16.25 10.25C14.6587 10.25 13.1326 10.8821 12.0074 12.0074L13.4216 13.4216C14.1717 12.6714 15.1891 12.25 16.25 12.25V10.25ZM12.0074 12.0074C10.8821 13.1326 10.25 14.6587 10.25 16.25H12.25C12.25 15.1891 12.6714 14.1717 13.4216 13.4216L12.0074 12.0074ZM10.25 16.25C10.25 17.8413 10.8821 19.3674 12.0074 20.4926L13.4216 19.0784C12.6714 18.3283 12.25 17.3109 12.25 16.25H10.25ZM12.0074 20.4926C13.1326 21.6179 14.6587 22.25 16.25 22.25V20.25C15.1891 20.25 14.1717 19.8286 13.4216 19.0784L12.0074 20.4926ZM6 21.25V11.25H4V21.25H6ZM6 11.25C6 9.85761 6.55312 8.52226 7.53769 7.53769L6.12348 6.12348C4.76384 7.48311 4 9.32718 4 11.25H6ZM7.53769 7.53769C8.52226 6.55312 9.85761 6 11.25 6V4C9.32718 4 7.48311 4.76384 6.12348 6.12348L7.53769 7.53769ZM11.25 6H21.25V4H11.25V6ZM21.25 6C22.6424 6 23.9777 6.55312 24.9623 7.53769L26.3765 6.12348C25.0169 4.76384 23.1728 4 21.25 4V6ZM24.9623 7.53769C25.9469 8.52226 26.5 9.85761 26.5 11.25H28.5C28.5 9.32718 27.7362 7.48311 26.3765 6.12348L24.9623 7.53769ZM26.5 11.25V21.25H28.5V11.25H26.5ZM26.5 21.25C26.5 22.6424 25.9469 23.9777 24.9623 24.9623L26.3765 26.3765C27.7362 25.0169 28.5 23.1728 28.5 21.25H26.5ZM24.9623 24.9623C23.9777 25.9469 22.6424 26.5 21.25 26.5V28.5C23.1728 28.5 25.0169 27.7362 26.3765 26.3765L24.9623 24.9623ZM21.25 26.5H11.25V28.5H21.25V26.5ZM11.25 26.5C9.85761 26.5 8.52226 25.9469 7.53769 24.9623L6.12348 26.3765C7.48311 27.7362 9.32718 28.5 11.25 28.5V26.5ZM7.53769 24.9623C6.55312 23.9777 6 22.6424 6 21.25H4C4 23.1728 4.76384 25.0169 6.12348 26.3765L7.53769 24.9623ZM23.8649 10.0641L23.8809 10.0465L22.4011 8.70109L22.3851 8.71869L23.8649 10.0641Z" fill="#141414"/>
</svg>
