<svg width="98" height="20" viewBox="0 0 98 20" fill="none" xmlns="http://www.w3.org/2000/svg">
<g clip-path="url(#clip0_400_20981)">
<path fill-rule="evenodd" clip-rule="evenodd" d="M82.5146 15.453L82.2896 15.2638C81.7431 14.8065 81.6467 13.9707 82.1449 13.4345L87.9953 6.87449C88.4614 6.33834 89.3132 6.24372 89.8597 6.73257L90.0847 6.9218C90.6311 7.37911 90.7276 8.21487 90.2293 8.75103L84.3791 15.3111C83.913 15.8472 83.0932 15.9103 82.5146 15.453Z" fill="url(#paint0_linear_400_20981)"/>
<path opacity="0.4" fill-rule="evenodd" clip-rule="evenodd" d="M87.2078 8.00897L87.0953 7.88281L86.1953 8.89204L86.2917 9.00243C87.8349 10.5163 87.1757 12.0459 86.8221 12.5821L86.9507 12.4401C87.1596 12.2036 87.4811 11.8409 87.8188 11.4467C88.1724 10.8474 88.6706 9.4282 87.2078 8.00897Z" fill="url(#paint1_linear_400_20981)"/>
<path opacity="0.4" fill-rule="evenodd" clip-rule="evenodd" d="M89.1365 9.97988L89.3775 9.7118C89.3936 9.68026 89.4258 9.64873 89.4418 9.61719C89.1847 9.90103 88.9114 10.2006 88.6543 10.5003C88.8472 10.2953 89.0079 10.1218 89.1365 9.97988Z" fill="url(#paint2_radial_400_20981)"/>
<path fill-rule="evenodd" clip-rule="evenodd" d="M90.2605 7.07905L84.4103 0.519023C83.9442 -0.0171334 83.0924 -0.111749 82.546 0.377099L82.321 0.56633C81.7743 1.02364 81.6779 1.85941 82.1763 2.39557L87.1104 7.8833L87.2229 8.00945C88.6855 9.44445 88.1873 10.8637 87.8176 11.4629C88.1069 11.1318 88.3962 10.8006 88.6694 10.501C88.9266 10.2014 89.1998 9.90176 89.4569 9.61792C89.7141 9.33407 89.9552 9.06599 90.1159 8.89253C90.6784 8.35638 90.7588 7.61522 90.2605 7.07905Z" fill="url(#paint3_linear_400_20981)"/>
<path fill-rule="evenodd" clip-rule="evenodd" d="M89.9404 15.453L89.7154 15.2638C89.1689 14.8065 89.0725 13.9707 89.5707 13.4345L95.4209 6.87449C95.887 6.33834 96.7388 6.24372 97.2853 6.73257L97.5103 6.92182C98.0567 7.37912 98.1532 8.21489 97.6549 8.75105L91.8047 15.3111C91.3386 15.8472 90.519 15.9103 89.9404 15.453Z" fill="url(#paint4_linear_400_20981)"/>
<path opacity="0.4" fill-rule="evenodd" clip-rule="evenodd" d="M94.6981 7.94647L94.5856 7.82031L93.6855 8.82954L93.782 8.93993C95.3249 10.4538 94.6659 11.9834 94.3124 12.5196L94.4409 12.3776C94.6499 12.1411 94.9713 11.7784 95.3088 11.3842C95.6624 10.7849 96.1606 9.3657 94.6981 7.94647Z" fill="url(#paint5_linear_400_20981)"/>
<path opacity="0.4" fill-rule="evenodd" clip-rule="evenodd" d="M96.5447 9.9799L96.7857 9.7118C96.8018 9.68026 96.834 9.64873 96.85 9.61719C96.5929 9.90105 96.3197 10.2007 96.0625 10.5003C96.2554 10.2953 96.4322 10.1218 96.5447 9.9799Z" fill="url(#paint6_radial_400_20981)"/>
<path fill-rule="evenodd" clip-rule="evenodd" d="M97.6707 7.07906L91.8203 0.519022C91.3543 -0.0171334 90.5024 -0.111749 89.956 0.377099L89.731 0.566332C89.1845 1.02364 89.0881 1.85941 89.5863 2.39558L94.5204 7.88329L94.6329 8.00944C96.0957 9.44446 95.5973 10.8637 95.2276 11.4629C95.5169 11.1318 95.8062 10.8006 96.0796 10.501C96.3368 10.2014 96.61 9.90177 96.8672 9.61792C97.1243 9.33408 97.3654 9.066 97.5261 8.89252C98.0886 8.35637 98.169 7.61521 97.6707 7.07906Z" fill="url(#paint7_linear_400_20981)"/>
<path fill-rule="evenodd" clip-rule="evenodd" d="M0.353586 15.3906C0.128577 15.1698 0 14.8386 0 14.4286V1.45049C0 1.02472 0.128577 0.693561 0.401802 0.425482C0.675028 0.157405 1.01254 0.03125 1.44649 0.03125C1.88043 0.03125 2.26617 0.157405 2.52332 0.425482C2.79655 0.693561 2.92512 1.02472 2.92512 1.45049V13.4194H9.24146C10.1415 13.4194 10.6076 13.8136 10.6076 14.5863C10.6076 15.359 10.1415 15.7533 9.24146 15.7533H1.36613C0.932182 15.7533 0.594668 15.6271 0.353586 15.3906Z" fill="#4B4C4B"/>
<path fill-rule="evenodd" clip-rule="evenodd" d="M12.8901 15.4853C12.6169 15.2172 12.4883 14.8703 12.4883 14.4288V1.43486C12.4883 1.00909 12.6169 0.677936 12.8901 0.409858C13.1633 0.141779 13.5008 0.015625 13.9348 0.015625C14.3687 0.015625 14.7544 0.141779 15.0116 0.409858C15.2848 0.677936 15.4134 1.00909 15.4134 1.43486V14.4288C15.4134 14.8545 15.2848 15.2172 15.0116 15.4853C14.7384 15.7534 14.3848 15.8795 13.9348 15.8795C13.5169 15.8795 13.1633 15.7534 12.8901 15.4853Z" fill="#4B4C4B"/>
<path fill-rule="evenodd" clip-rule="evenodd" d="M32.1284 18.7024C32.1284 18.4343 32.032 18.182 31.8712 17.9139L31.0676 16.7312C30.6016 15.9901 30.039 15.4855 29.3479 15.2647C30.6819 14.6812 31.7105 13.7666 32.4177 12.5051C33.1409 11.2593 33.4945 9.72967 33.4945 7.97927C33.4945 6.35504 33.1891 4.93579 32.5784 3.73733C31.9677 2.55463 31.0998 1.62424 29.9587 0.961929C28.8336 0.331156 27.4836 0 25.9567 0C24.3978 0 23.0638 0.299617 21.9225 0.961929C20.7974 1.62424 19.9135 2.53887 19.3028 3.73733C18.7082 4.95156 18.3867 6.35504 18.3867 7.97927C18.3867 9.58775 18.6921 11.007 19.3028 12.2212C19.9135 13.4039 20.7814 14.3343 21.9225 14.9966C23.0638 15.6274 24.3978 15.9586 25.9567 15.9586C26.5032 15.9586 26.9371 16.0532 27.2747 16.2109C27.6122 16.3686 27.8854 16.6209 28.0943 16.9678L29.4122 19.1124C29.5729 19.349 29.7819 19.5383 30.0069 19.6644C30.248 19.7906 30.5051 19.8537 30.7783 19.8537C31.1319 19.8537 31.4534 19.7275 31.7266 19.5225C31.9998 19.3175 32.1284 19.0336 32.1284 18.7024ZM30.5855 7.94775C30.5855 9.77698 30.1676 11.1962 29.3479 12.1897C28.5283 13.1832 27.3872 13.672 25.9246 13.672C24.4621 13.672 23.3049 13.1832 22.4852 12.1897C21.6655 11.1962 21.2477 9.80852 21.2477 7.94775C21.2477 6.08696 21.6655 4.69927 22.4852 3.70581C23.3049 2.7281 24.446 2.23925 25.9246 2.23925C27.4032 2.23925 28.5283 2.71233 29.3479 3.70581C30.1676 4.69927 30.5855 6.08696 30.5855 7.94775Z" fill="#4B4C4B"/>
<path fill-rule="evenodd" clip-rule="evenodd" d="M36.6289 14.4276C36.6289 14.8692 36.7575 15.2161 37.0307 15.4842C37.2718 15.7523 37.6414 15.8784 38.0754 15.8942C38.5254 15.8942 38.879 15.768 39.1522 15.4999C39.4254 15.2476 39.554 14.9007 39.554 14.4434V9.68106H43.5881C45.2917 9.68106 46.6096 9.27106 47.5579 8.41952C48.5061 7.58373 48.9883 6.40104 48.9883 4.90296C48.9883 3.40487 48.5061 2.22218 47.5579 1.40217C46.6096 0.550627 45.2917 0.140625 43.5881 0.140625H38.0432C37.6093 0.140625 37.2718 0.266779 37.0146 0.487551C36.7575 0.724089 36.6289 1.05524 36.6289 1.48102V14.4276ZM46.2241 4.9345C46.2241 6.6376 45.2114 7.50491 43.2184 7.50491L39.554 7.48914V2.3641H43.2184C45.2114 2.3641 46.2241 3.23143 46.2241 4.9345Z" fill="#4B4C4B"/>
<path fill-rule="evenodd" clip-rule="evenodd" d="M63.9501 15.4855C64.2233 15.2332 64.3679 14.9493 64.3679 14.6182C64.3679 14.4132 64.3197 14.2397 64.2554 14.0347L58.0034 0.898852C57.8588 0.599235 57.6498 0.378463 57.3766 0.220771C57.1034 0.0788465 56.8141 0 56.4927 0C56.1712 0 55.8819 0.0630773 55.6087 0.220771C55.3194 0.378463 55.1105 0.615004 54.9819 0.898852L48.7458 14.0347C48.6654 14.2239 48.6172 14.4289 48.6172 14.6182C48.6172 14.9651 48.7458 15.2647 49.0351 15.4855C49.3083 15.7062 49.6458 15.8324 49.9833 15.8324C50.2405 15.8324 50.4655 15.7693 50.6744 15.6432C50.8833 15.517 51.0441 15.3278 51.1726 15.0597L52.539 12.0951H60.4464L61.8125 15.0597C61.925 15.312 62.1018 15.517 62.3107 15.6432C62.5197 15.7693 62.7607 15.8324 62.9857 15.8324C63.3554 15.8324 63.6768 15.7062 63.9501 15.4855ZM59.4821 9.88737H53.5193L56.4927 3.32733L59.4821 9.88737Z" fill="#4B4C4B"/>
<path fill-rule="evenodd" clip-rule="evenodd" d="M75.6188 0.0313943C75.9563 0.0313943 76.2617 0.157549 76.5349 0.425627C76.8081 0.693706 76.9367 0.977554 76.9367 1.35602C76.9367 1.63987 76.8242 1.93949 76.5992 2.20757L71.4722 8.34182V14.4761C71.4722 14.9334 71.3437 15.2803 71.0704 15.5484C70.7972 15.8165 70.4597 15.9269 70.0418 15.9269C69.6079 15.9269 69.2382 15.8007 68.965 15.5484C68.6918 15.2961 68.5632 14.9492 68.5632 14.4761V8.34182L63.4684 2.1918C63.2434 1.92372 63.1309 1.63987 63.1309 1.34025C63.1309 0.993323 63.2594 0.677936 63.5327 0.409858C63.8059 0.141779 64.1273 0.015625 64.4488 0.015625C64.8345 0.015625 65.1399 0.173318 65.4131 0.504473L70.0257 6.11836L74.6223 0.504473C74.8956 0.189088 75.2331 0.0313943 75.6188 0.0313943Z" fill="#4B4C4B"/>
</g>
<defs>
<linearGradient id="paint0_linear_400_20981" x1="84.3419" y1="17.5005" x2="92.4015" y2="13.5178" gradientUnits="userSpaceOnUse">
<stop stop-color="#1FADC3"/>
<stop offset="0.7072" stop-color="#36B98F"/>
</linearGradient>
<linearGradient id="paint1_linear_400_20981" x1="87.1931" y1="11.2961" x2="88.7096" y2="11.071" gradientUnits="userSpaceOnUse">
<stop stop-color="#123F06" stop-opacity="0.01"/>
<stop offset="1" stop-color="#123F06"/>
</linearGradient>
<radialGradient id="paint2_radial_400_20981" cx="0" cy="0" r="1" gradientUnits="userSpaceOnUse" gradientTransform="translate(85.9126 10.7997) scale(3.91869 4.39411)">
<stop offset="0.4185" stop-color="#123F06" stop-opacity="0.01"/>
<stop offset="1" stop-color="#123F06"/>
</radialGradient>
<linearGradient id="paint3_linear_400_20981" x1="78.7883" y1="8.7513" x2="88.5942" y2="12.205" gradientUnits="userSpaceOnUse">
<stop stop-color="#9FDB57"/>
<stop offset="1" stop-color="#71CA5E"/>
</linearGradient>
<linearGradient id="paint4_linear_400_20981" x1="91.7604" y1="17.5045" x2="99.8201" y2="13.5218" gradientUnits="userSpaceOnUse">
<stop stop-color="#1FADC3"/>
<stop offset="0.7072" stop-color="#36B98F"/>
</linearGradient>
<linearGradient id="paint5_linear_400_20981" x1="94.6832" y1="11.2336" x2="96.1996" y2="11.0085" gradientUnits="userSpaceOnUse">
<stop stop-color="#123F06" stop-opacity="0.01"/>
<stop offset="1" stop-color="#123F06"/>
</linearGradient>
<radialGradient id="paint6_radial_400_20981" cx="0" cy="0" r="1" gradientUnits="userSpaceOnUse" gradientTransform="translate(93.3275 10.7997) scale(3.91869 4.39411)">
<stop offset="0.4185" stop-color="#123F06" stop-opacity="0.01"/>
<stop offset="1" stop-color="#123F06"/>
</radialGradient>
<linearGradient id="paint7_linear_400_20981" x1="86.2032" y1="8.75419" x2="96.0091" y2="12.2079" gradientUnits="userSpaceOnUse">
<stop stop-color="#9FDB57"/>
<stop offset="1" stop-color="#71CA5E"/>
</linearGradient>
<clipPath id="clip0_400_20981">
<rect width="98" height="20" fill="white"/>
</clipPath>
</defs>
</svg>
