<svg width="112" height="22" viewBox="0 0 112 22" fill="none" xmlns="http://www.w3.org/2000/svg">
<path fill-rule="evenodd" clip-rule="evenodd" d="M94.3013 16.9995L94.0441 16.7913C93.4196 16.2883 93.3094 15.3689 93.8788 14.7792L100.565 7.56311C101.098 6.97334 102.071 6.86926 102.696 7.40699L102.953 7.61515C103.577 8.11819 103.688 9.03753 103.118 9.62732L96.4322 16.8433C95.8995 17.4331 94.9625 17.5025 94.3013 16.9995Z" fill="url(#paint0_linear_267_1086)"/>
<path opacity="0.4" fill-rule="evenodd" clip-rule="evenodd" d="M99.665 8.8126L99.5364 8.67383L98.5078 9.78398L98.618 9.9054C100.381 11.5706 99.6283 13.2532 99.2242 13.843L99.3711 13.6869C99.6099 13.4267 99.9772 13.0277 100.363 12.5941C100.767 11.9349 101.337 10.3738 99.665 8.8126Z" fill="url(#paint1_linear_267_1086)"/>
<path opacity="0.4" fill-rule="evenodd" clip-rule="evenodd" d="M101.869 10.981L102.145 10.6861C102.163 10.6514 102.2 10.6167 102.218 10.582C101.925 10.8943 101.612 11.2238 101.318 11.5534C101.539 11.3279 101.722 11.1371 101.869 10.981Z" fill="url(#paint2_radial_267_1086)"/>
<path fill-rule="evenodd" clip-rule="evenodd" d="M103.155 7.78892L96.4691 0.572878C95.9364 -0.0168938 94.9629 -0.120971 94.3384 0.416763L94.0812 0.624917C93.4567 1.12796 93.3465 2.04731 93.9159 2.63709L99.5549 8.67357L99.6835 8.81234C101.355 10.3909 100.786 11.952 100.363 12.6112C100.694 12.2469 101.024 11.8826 101.337 11.5531C101.63 11.2235 101.943 10.8939 102.237 10.5817C102.531 10.2694 102.806 9.97454 102.99 9.78373C103.633 9.19396 103.724 8.37869 103.155 7.78892Z" fill="url(#paint3_linear_267_1086)"/>
<path fill-rule="evenodd" clip-rule="evenodd" d="M102.788 16.9995L102.53 16.7913C101.906 16.2883 101.796 15.3689 102.365 14.7792L109.051 7.56311C109.584 6.97334 110.557 6.86926 111.182 7.40699L111.439 7.61515C112.064 8.11819 112.174 9.03753 111.604 9.62732L104.919 16.8433C104.386 17.4331 103.449 17.5025 102.788 16.9995Z" fill="url(#paint4_linear_267_1086)"/>
<path opacity="0.4" fill-rule="evenodd" clip-rule="evenodd" d="M108.224 8.74424L108.095 8.60547L107.066 9.71564L107.177 9.83707C108.94 11.5023 108.187 13.1849 107.783 13.7747L107.93 13.6186C108.168 13.3584 108.536 12.9594 108.922 12.5257C109.326 11.8666 109.895 10.3054 108.224 8.74424Z" fill="url(#paint5_linear_267_1086)"/>
<path opacity="0.4" fill-rule="evenodd" clip-rule="evenodd" d="M110.336 10.981L110.612 10.6861C110.63 10.6514 110.667 10.6167 110.685 10.582C110.391 10.8943 110.079 11.2238 109.785 11.5534C110.006 11.3279 110.208 11.1371 110.336 10.981Z" fill="url(#paint6_radial_267_1086)"/>
<path fill-rule="evenodd" clip-rule="evenodd" d="M111.622 7.78892L104.936 0.572878C104.403 -0.0168938 103.43 -0.120971 102.805 0.416763L102.548 0.624917C101.924 1.12796 101.813 2.04731 102.383 2.63709L108.022 8.67357L108.15 8.81234C109.822 10.3909 109.252 11.952 108.83 12.6112C109.161 12.2469 109.491 11.8826 109.803 11.5531C110.097 11.2235 110.41 10.8939 110.703 10.5817C110.997 10.2694 111.273 9.97454 111.457 9.78373C112.1 9.19396 112.191 8.37869 111.622 7.78892Z" fill="url(#paint7_linear_267_1086)"/>
<path fill-rule="evenodd" clip-rule="evenodd" d="M0.404098 16.9304C0.146945 16.6875 0 16.3233 0 15.8723V1.59632C0 1.12797 0.146945 0.763699 0.459202 0.468812C0.77146 0.173926 1.15719 0.0351562 1.65313 0.0351562C2.14907 0.0351562 2.58991 0.173926 2.8838 0.468812C3.19605 0.763699 3.343 1.12797 3.343 1.59632V14.7621H10.5617C11.5903 14.7621 12.1229 15.1958 12.1229 16.0457C12.1229 16.8957 11.5903 17.3294 10.5617 17.3294H1.56129C1.06535 17.3294 0.67962 17.1906 0.404098 16.9304Z" fill="white"/>
<path fill-rule="evenodd" clip-rule="evenodd" d="M14.7326 17.0342C14.4204 16.7394 14.2734 16.3577 14.2734 15.872V1.57874C14.2734 1.11039 14.4204 0.74612 14.7326 0.451234C15.0449 0.156348 15.4306 0.0175781 15.9266 0.0175781C16.4225 0.0175781 16.8633 0.156348 17.1572 0.451234C17.4695 0.74612 17.6164 1.11039 17.6164 1.57874V15.872C17.6164 16.3404 17.4695 16.7394 17.1572 17.0342C16.845 17.3291 16.4409 17.4679 15.9266 17.4679C15.449 17.4679 15.0449 17.3291 14.7326 17.0342Z" fill="white"/>
<path fill-rule="evenodd" clip-rule="evenodd" d="M36.7165 20.5726C36.7165 20.2778 36.6063 20.0002 36.4226 19.7053L35.5042 18.4044C34.9715 17.5891 34.3287 17.034 33.5388 16.7912C35.0634 16.1494 36.2389 15.1433 37.0471 13.7556C37.8737 12.3852 38.2778 10.7026 38.2778 8.7772C38.2778 6.99054 37.9288 5.42937 37.2308 4.11106C36.5328 2.8101 35.5409 1.78666 34.2368 1.05812C32.9511 0.364271 31.4081 0 29.6632 0C27.8815 0 26.3569 0.329579 25.0526 1.05812C23.7668 1.78666 22.7566 2.79275 22.0587 4.11106C21.3791 5.44671 21.0117 6.99054 21.0117 8.7772C21.0117 10.5465 21.3607 12.1077 22.0587 13.4433C22.7566 14.7443 23.7485 15.7677 25.0526 16.4963C26.3569 17.1901 27.8815 17.5544 29.6632 17.5544C30.2877 17.5544 30.7836 17.6585 31.1694 17.832C31.5551 18.0054 31.8673 18.283 32.1061 18.6646L33.6123 21.0236C33.796 21.2839 34.0348 21.4921 34.2919 21.6309C34.5674 21.7696 34.8613 21.839 35.1736 21.839C35.5777 21.839 35.945 21.7003 36.2573 21.4748C36.5695 21.2493 36.7165 20.9369 36.7165 20.5726ZM34.9532 8.74253C34.9532 10.7547 34.4756 12.3159 33.5388 13.4087C32.6021 14.5015 31.2979 15.0392 29.6264 15.0392C27.955 15.0392 26.6325 14.5015 25.6957 13.4087C24.7589 12.3159 24.2814 10.7894 24.2814 8.74253C24.2814 6.69566 24.7589 5.1692 25.6957 4.07639C26.6325 3.00091 27.9366 2.46318 29.6264 2.46318C31.3163 2.46318 32.6021 2.98356 33.5388 4.07639C34.4756 5.1692 34.9532 6.69566 34.9532 8.74253Z" fill="white"/>
<path fill-rule="evenodd" clip-rule="evenodd" d="M41.8613 15.8719C41.8613 16.3577 42.0083 16.7393 42.3205 17.0342C42.596 17.329 43.0185 17.4678 43.5144 17.4852C44.0288 17.4852 44.4328 17.3464 44.7451 17.0515C45.0574 16.774 45.2043 16.3923 45.2043 15.8893V10.6507H49.8147C51.7617 10.6507 53.2679 10.1997 54.3516 9.26304C55.4353 8.34367 55.9863 7.04271 55.9863 5.39482C55.9863 3.74692 55.4353 2.44596 54.3516 1.54395C53.2679 0.607253 51.7617 0.15625 49.8147 0.15625H43.4777C42.9818 0.15625 42.596 0.29502 42.3022 0.537868C42.0083 0.79806 41.8613 1.16233 41.8613 1.63068V15.8719ZM52.827 5.42949C52.827 7.3029 51.6698 8.25694 49.3922 8.25694L45.2043 8.23959V2.60207H49.3922C51.6698 2.60207 52.827 3.55611 52.827 5.42949Z" fill="white"/>
<path fill-rule="evenodd" clip-rule="evenodd" d="M73.0858 17.034C73.3981 16.7565 73.5634 16.4442 73.5634 16.08C73.5634 15.8545 73.5083 15.6637 73.4348 15.4382L66.2896 0.988737C66.1243 0.659158 65.8855 0.41631 65.5733 0.242848C65.261 0.0867312 64.9304 0 64.563 0C64.1957 0 63.8651 0.069385 63.5528 0.242848C63.2222 0.41631 62.9834 0.676504 62.8365 0.988737L55.7094 15.4382C55.6176 15.6463 55.5625 15.8718 55.5625 16.08C55.5625 16.4616 55.7094 16.7912 56.0401 17.034C56.3523 17.2769 56.7381 17.4156 57.1238 17.4156C57.4177 17.4156 57.6748 17.3462 57.9136 17.2075C58.1524 17.0687 58.3361 16.8605 58.483 16.5657L60.0445 13.3046H69.0816L70.6429 16.5657C70.7714 16.8432 70.9735 17.0687 71.2123 17.2075C71.451 17.3462 71.7266 17.4156 71.9837 17.4156C72.4062 17.4156 72.7735 17.2769 73.0858 17.034ZM67.9795 10.8761H61.1647L64.563 3.66006L67.9795 10.8761Z" fill="white"/>
<path fill-rule="evenodd" clip-rule="evenodd" d="M86.4223 0.0349244C86.8081 0.0349244 87.157 0.173694 87.4693 0.46858C87.7816 0.763466 87.9285 1.0757 87.9285 1.49201C87.9285 1.80424 87.7999 2.13381 87.5428 2.42872L81.6834 9.17639V15.9241C81.6834 16.4271 81.5364 16.8087 81.2242 17.1036C80.9119 17.3985 80.5262 17.52 80.0486 17.52C79.5527 17.52 79.1302 17.3812 78.818 17.1036C78.5057 16.8261 78.3588 16.4445 78.3588 15.9241V9.17639L72.5361 2.41137C72.279 2.11646 72.1504 1.80424 72.1504 1.47466C72.1504 1.09305 72.2973 0.74612 72.6096 0.451234C72.9219 0.156348 73.2892 0.0175781 73.6566 0.0175781C74.0974 0.0175781 74.4464 0.191041 74.7586 0.555313L80.0303 6.73058L85.2835 0.555313C85.5958 0.208387 85.9815 0.0349244 86.4223 0.0349244Z" fill="white"/>
<defs>
<linearGradient id="paint0_linear_267_1086" x1="96.3896" y1="19.2517" x2="105.459" y2="14.5953" gradientUnits="userSpaceOnUse">
<stop stop-color="#1FADC3"/>
<stop offset="0.7072" stop-color="#36B98F"/>
</linearGradient>
<linearGradient id="paint1_linear_267_1086" x1="99.6482" y1="12.4284" x2="101.378" y2="12.1617" gradientUnits="userSpaceOnUse">
<stop stop-color="#123F06" stop-opacity="0.01"/>
<stop offset="1" stop-color="#123F06"/>
</linearGradient>
<radialGradient id="paint2_radial_267_1086" cx="0" cy="0" r="1" gradientUnits="userSpaceOnUse" gradientTransform="translate(98.185 11.8828) scale(4.4785 4.83353)">
<stop offset="0.4185" stop-color="#123F06" stop-opacity="0.01"/>
<stop offset="1" stop-color="#123F06"/>
</radialGradient>
<linearGradient id="paint3_linear_267_1086" x1="90.0439" y1="9.62839" x2="101.153" y2="13.6936" gradientUnits="userSpaceOnUse">
<stop stop-color="#9FDB57"/>
<stop offset="1" stop-color="#71CA5E"/>
</linearGradient>
<linearGradient id="paint4_linear_267_1086" x1="104.868" y1="19.2561" x2="113.937" y2="14.5997" gradientUnits="userSpaceOnUse">
<stop stop-color="#1FADC3"/>
<stop offset="0.7072" stop-color="#36B98F"/>
</linearGradient>
<linearGradient id="paint5_linear_267_1086" x1="108.207" y1="12.3601" x2="109.937" y2="12.0933" gradientUnits="userSpaceOnUse">
<stop stop-color="#123F06" stop-opacity="0.01"/>
<stop offset="1" stop-color="#123F06"/>
</linearGradient>
<radialGradient id="paint6_radial_267_1086" cx="0" cy="0" r="1" gradientUnits="userSpaceOnUse" gradientTransform="translate(106.659 11.8828) scale(4.4785 4.83353)">
<stop offset="0.4185" stop-color="#123F06" stop-opacity="0.01"/>
<stop offset="1" stop-color="#123F06"/>
</radialGradient>
<linearGradient id="paint7_linear_267_1086" x1="98.5162" y1="9.63157" x2="109.626" y2="13.6968" gradientUnits="userSpaceOnUse">
<stop stop-color="#9FDB57"/>
<stop offset="1" stop-color="#71CA5E"/>
</linearGradient>
</defs>
</svg>
