<svg width="32" height="32" viewBox="0 0 32 32" fill="none" xmlns="http://www.w3.org/2000/svg">
<path d="M27.896 17.5603C27.6127 19.72 26.7469 21.7619 25.3914 23.467C24.0359 25.1721 22.2419 26.476 20.2016 27.2389C18.1614 28.0019 15.9519 28.195 13.8102 27.7977C11.6685 27.4004 9.67541 26.4276 8.04459 24.9836C6.41377 23.5396 5.20679 21.6789 4.55308 19.6011C3.89938 17.5232 3.82362 15.3067 4.33393 13.1891C4.84423 11.0714 5.92136 9.13269 7.44978 7.58072C8.9782 6.02874 10.9003 4.9221 13.0098 4.37947C18.8578 2.87961 24.9112 5.88983 27.146 11.4993" stroke="#08A744" stroke-width="2" stroke-linecap="round" stroke-linejoin="round"/>
<path d="M27.9954 4V11.4993H20.4961" stroke="#08A744" stroke-width="2" stroke-linecap="round" stroke-linejoin="round"/>
</svg>
