<svg width="32" height="32" viewBox="0 0 32 32" fill="none" xmlns="http://www.w3.org/2000/svg">
<path d="M13.4 8.2C13.4 6.82087 12.8521 5.49823 11.877 4.52304C10.9018 3.54786 9.57913 3 8.2 3C6.82087 3 5.49823 3.54786 4.52304 4.52304C3.54786 5.49823 3 6.82087 3 8.2C3 9.57913 3.54786 10.9018 4.52304 11.877C5.49823 12.8521 6.82087 13.4 8.2 13.4C9.57913 13.4 10.9018 12.8521 11.877 11.877C12.8521 10.9018 13.4 9.57913 13.4 8.2ZM13.4 23.8C13.4 22.4209 12.8521 21.0982 11.877 20.123C10.9018 19.1479 9.57913 18.6 8.2 18.6C6.82087 18.6 5.49823 19.1479 4.52304 20.123C3.54786 21.0982 3 22.4209 3 23.8C3 25.1791 3.54786 26.5018 4.52304 27.477C5.49823 28.4521 6.82087 29 8.2 29C9.57913 29 10.9018 28.4521 11.877 27.477C12.8521 26.5018 13.4 25.1791 13.4 23.8ZM29 8.2C29 6.82087 28.4521 5.49823 27.477 4.52304C26.5018 3.54786 25.1791 3 23.8 3C22.4209 3 21.0982 3.54786 20.123 4.52304C19.1479 5.49823 18.6 6.82087 18.6 8.2C18.6 9.57913 19.1479 10.9018 20.123 11.877C21.0982 12.8521 22.4209 13.4 23.8 13.4C25.1791 13.4 26.5018 12.8521 27.477 11.877C28.4521 10.9018 29 9.57913 29 8.2ZM29 23.8C29 22.4209 28.4521 21.0982 27.477 20.123C26.5018 19.1479 25.1791 18.6 23.8 18.6C22.4209 18.6 21.0982 19.1479 20.123 20.123C19.1479 21.0982 18.6 22.4209 18.6 23.8C18.6 25.1791 19.1479 26.5018 20.123 27.477C21.0982 28.4521 22.4209 29 23.8 29C25.1791 29 26.5018 28.4521 27.477 27.477C28.4521 26.5018 29 25.1791 29 23.8Z" stroke="white" stroke-width="2" stroke-linecap="round" stroke-linejoin="round"/>
</svg>
