<svg width="32" height="32" viewBox="0 0 32 32" fill="none" xmlns="http://www.w3.org/2000/svg">
<g clip-path="url(#clip0_400_20123)">
<g clip-path="url(#clip1_400_20123)">
<path fill-rule="evenodd" clip-rule="evenodd" d="M25.2976 9.60925C25.3907 9.57823 25.5147 9.64026 25.6388 9.81082C25.6388 9.81082 25.6388 9.81082 31.2518 15.2688C31.5775 15.5945 31.5775 16.0906 31.2518 16.3387C31.2518 16.3387 31.2518 16.3387 25.6388 21.8898C25.5147 22.0449 25.3907 22.0914 25.2976 22.0449C25.2046 21.9983 25.1426 21.8433 25.1426 21.6417V9.96588C25.1426 9.7643 25.2046 9.64026 25.2976 9.60925Z" fill="#ED1C24"/>
<path fill-rule="evenodd" clip-rule="evenodd" d="M15.699 0.507812H16.1022L16.4743 0.66287C16.4743 0.66287 16.4743 0.66287 22.258 6.38449C22.5061 6.71011 22.413 6.9427 22.0099 6.9427C22.0099 6.9427 22.0099 6.9427 19.6065 6.9427C19.2033 6.9427 18.8622 7.28383 18.8622 7.68698C18.8622 7.68698 18.8622 7.68698 18.8622 11.9356C18.8622 12.3387 18.5366 12.6643 18.0404 12.6643C18.0404 12.6643 18.0404 12.6643 13.8384 12.6643C13.4197 12.6643 13.0941 12.3387 13.0941 11.9356C13.0941 11.9356 13.0941 11.9356 13.0941 7.68698C13.0941 7.28383 12.7685 6.9427 12.3498 6.9427H9.79136C9.3727 6.9427 9.29517 6.71011 9.54326 6.38449C9.54326 6.38449 9.54326 6.38449 15.3269 0.66287L15.699 0.507812Z" fill="#ED1C24"/>
<path fill-rule="evenodd" clip-rule="evenodd" d="M6.66012 9.48596C6.75316 9.54798 6.81518 9.68753 6.81518 9.88911V21.7975C6.81518 22.0146 6.75316 22.1387 6.66012 22.1697C6.55158 22.2162 6.41203 22.1697 6.24147 22.0456C6.24147 22.0456 6.24147 22.0456 0.550856 16.3395C0.225235 16.0914 0.225235 15.5952 0.550856 15.2696C0.550856 15.2696 0.550856 15.2696 6.24147 9.64102C6.41203 9.48596 6.55158 9.43944 6.66012 9.48596Z" fill="#ED1C24"/>
<path fill-rule="evenodd" clip-rule="evenodd" d="M13.8384 18.8672C13.8384 18.8672 13.8384 18.8672 18.0405 18.8672C18.5367 18.8672 18.8778 19.1928 18.8778 19.6115C18.8778 19.6115 18.8778 19.6115 18.8778 24.0926C18.8778 24.5888 19.2034 24.9144 19.6066 24.9144H21.8394C22.258 24.9144 22.4131 25.147 22.0875 25.3951C22.0875 25.3951 22.0875 25.3951 16.4744 31.0237C16.3038 31.1943 16.1023 31.2718 15.9007 31.2718C15.6991 31.2718 15.482 31.1943 15.327 31.0237C15.327 31.0237 15.327 31.0237 9.71389 25.3951C9.37276 25.147 9.54332 24.9144 9.94647 24.9144C9.94647 24.9144 9.94647 24.9144 12.3499 24.9144C12.7685 24.9144 13.0941 24.5888 13.0941 24.0926C13.0941 24.0926 13.0941 24.0926 13.0941 19.6115C13.0941 19.1928 13.4198 18.8672 13.8384 18.8672Z" fill="#ED1C24"/>
</g>
</g>
<defs>
<clipPath id="clip0_400_20123">
<rect width="32" height="32" fill="white"/>
</clipPath>
<clipPath id="clip1_400_20123">
<rect width="32" height="32" fill="white"/>
</clipPath>
</defs>
</svg>
