<svg width="32" height="32" viewBox="0 0 32 32" fill="none" xmlns="http://www.w3.org/2000/svg">
<path d="M23.4166 10.166H25.267L25.5872 9.75646C25.7271 9.57756 25.8303 9.37286 25.8911 9.15405C25.9518 8.93524 25.9689 8.70661 25.9412 8.48121C25.9136 8.25582 25.8419 8.03807 25.7301 7.84041C25.6183 7.64274 25.4686 7.46904 25.2897 7.32921L20.43 3.53288C20.2511 3.39301 20.0464 3.28976 19.8276 3.22902C19.6088 3.16828 19.3801 3.15123 19.1547 3.17886C18.9293 3.20648 18.7116 3.27824 18.5139 3.39003C18.3163 3.50182 18.1425 3.65145 18.0027 3.83038L17.7886 4.10454L17.7939 4.10863L13.0613 10.166H14.9035L19.1519 4.72871C19.1961 4.67219 19.2609 4.63553 19.3321 4.62678C19.4033 4.61803 19.4751 4.63791 19.5316 4.68204L20.9001 5.75071L17.4509 10.166H19.3018L22.0493 6.64846L24.3914 8.47838C24.5092 8.57054 24.5302 8.74088 24.4381 8.85871L23.4166 10.166ZM7.39714 7.83263H13.4037L12.2645 9.29096H7.39714C7.12639 9.29096 6.86674 9.39851 6.6753 9.58996C6.48385 9.7814 6.3763 10.0411 6.3763 10.3118C6.3763 10.5825 6.48385 10.8422 6.6753 11.0336C6.86674 11.2251 7.12639 11.3326 7.39714 11.3326H23.4388C24.4057 11.3326 25.3331 11.7167 26.0168 12.4005C26.7005 13.0842 27.0846 14.0115 27.0846 14.9785V22.8535C27.0846 23.8204 26.7005 24.7477 26.0168 25.4315C25.3331 26.1152 24.4057 26.4993 23.4388 26.4993H8.5638C7.59687 26.4993 6.66954 26.1152 5.98581 25.4315C5.30208 24.7477 4.91797 23.8204 4.91797 22.8535V10.3118C4.91797 9.65428 5.17917 9.02369 5.6441 8.55876C6.10903 8.09382 6.73962 7.83263 7.39714 7.83263ZM6.3763 22.8535C6.3763 23.4336 6.60677 23.99 7.01701 24.4003C7.42724 24.8105 7.98364 25.041 8.5638 25.041H23.4388C24.019 25.041 24.5754 24.8105 24.9856 24.4003C25.3958 23.99 25.6263 23.4336 25.6263 22.8535V14.9785C25.6263 14.3983 25.3958 13.8419 24.9856 13.4317C24.5754 13.0214 24.019 12.791 23.4388 12.791H7.39714C7.04505 12.7921 6.69687 12.7172 6.3763 12.5716V22.8535ZM20.8138 18.3326C20.6204 18.3326 20.4349 18.4094 20.2982 18.5462C20.1615 18.6829 20.0846 18.8684 20.0846 19.0618C20.0846 19.2552 20.1615 19.4406 20.2982 19.5774C20.4349 19.7141 20.6204 19.791 20.8138 19.791H23.4388C23.6322 19.791 23.8177 19.7141 23.9544 19.5774C24.0911 19.4406 24.168 19.2552 24.168 19.0618C24.168 18.8684 24.0911 18.6829 23.9544 18.5462C23.8177 18.4094 23.6322 18.3326 23.4388 18.3326H20.8138Z" fill="#141414"/>
</svg>
