<svg width="90" height="24" viewBox="0 0 90 24" fill="none" xmlns="http://www.w3.org/2000/svg">
<g clip-path="url(#clip0_267_1108)">
<path d="M33.6592 5.91406H28.6806C28.5158 5.91396 28.3564 5.97287 28.231 6.08018C28.1057 6.18749 28.0227 6.33614 27.997 6.49936L25.9835 19.2977C25.9742 19.3571 25.9779 19.4178 25.9943 19.4756C26.0107 19.5335 26.0394 19.587 26.0784 19.6327C26.1174 19.6783 26.1659 19.7149 26.2203 19.74C26.2748 19.7651 26.3341 19.778 26.3941 19.7779H28.7709C28.9358 19.778 29.0953 19.719 29.2207 19.6115C29.346 19.5041 29.4289 19.3553 29.4544 19.1919L29.9975 15.74C30.023 15.5768 30.1058 15.428 30.231 15.3206C30.3562 15.2132 30.5155 15.1541 30.6803 15.154H32.2564C35.5359 15.154 37.4286 13.563 37.9229 10.4103C38.1456 9.03101 37.9324 7.94726 37.2881 7.18828C36.5805 6.35486 35.3255 5.91406 33.6592 5.91406ZM34.2336 10.5884C33.9613 12.3793 32.5964 12.3793 31.2765 12.3793H30.5253L31.0523 9.03465C31.0678 8.9368 31.1175 8.84768 31.1926 8.78333C31.2678 8.71898 31.3634 8.68363 31.4622 8.68362H31.8065C32.7055 8.68362 33.5536 8.68362 33.9919 9.1974C34.2532 9.50391 34.3333 9.9593 34.2336 10.5884ZM48.541 10.5307H46.1569C46.0581 10.5307 45.9625 10.5661 45.8874 10.6304C45.8123 10.6948 45.7625 10.7839 45.7471 10.8818L45.6415 11.5502L45.4748 11.308C44.9587 10.557 43.8078 10.306 42.6591 10.306C40.0245 10.306 37.7744 12.3063 37.3362 15.1124C37.1083 16.5121 37.4322 17.8505 38.2243 18.7839C38.9508 19.6422 39.9903 19.9998 41.2271 19.9998C43.3499 19.9998 44.527 18.6314 44.527 18.6314L44.4207 19.2955C44.4113 19.3549 44.4147 19.4156 44.4309 19.4735C44.4471 19.5314 44.4757 19.5851 44.5145 19.6309C44.5534 19.6767 44.6018 19.7135 44.6562 19.7387C44.7106 19.764 44.7699 19.7771 44.8299 19.7772H46.9774C47.1423 19.7773 47.3018 19.7183 47.4271 19.6108C47.5525 19.5033 47.6354 19.3545 47.6609 19.1912L48.9494 11.0109C48.9589 10.9517 48.9554 10.8911 48.9393 10.8333C48.9231 10.7755 48.8946 10.722 48.8558 10.6763C48.817 10.6307 48.7687 10.594 48.7144 10.5689C48.66 10.5437 48.6009 10.5307 48.541 10.5307ZM45.2179 15.1824C44.9878 16.5479 43.9068 17.4645 42.528 17.4645C41.8357 17.4645 41.2825 17.2419 40.9272 16.8201C40.5749 16.4012 40.4409 15.8049 40.553 15.1408C40.7678 13.7871 41.867 12.8405 43.2247 12.8405C43.9017 12.8405 44.452 13.066 44.8146 13.4915C45.1778 13.9213 45.322 14.5212 45.2179 15.1824ZM61.2382 10.5307H58.8425C58.7295 10.5309 58.6183 10.5587 58.5184 10.6118C58.4186 10.6648 58.3332 10.7414 58.2696 10.8351L54.9653 15.7144L53.5647 11.0255C53.5217 10.8825 53.434 10.7572 53.3144 10.6681C53.1948 10.579 53.0498 10.5308 52.9008 10.5307H50.5466C50.4805 10.5306 50.4153 10.5462 50.3565 10.5764C50.2977 10.6066 50.2469 10.6504 50.2083 10.7042C50.1698 10.758 50.1447 10.8203 50.135 10.8858C50.1253 10.9514 50.1314 11.0183 50.1527 11.081L52.7916 18.8445L50.3107 22.3556C50.2666 22.4178 50.2405 22.491 50.2351 22.5672C50.2298 22.6433 50.2454 22.7195 50.2804 22.7873C50.3154 22.8552 50.3683 22.912 50.4333 22.9517C50.4984 22.9914 50.5731 23.0124 50.6492 23.0124H53.0421C53.1538 23.0125 53.2639 22.9855 53.3629 22.9336C53.4619 22.8818 53.5469 22.8066 53.6106 22.7146L61.5789 11.1839C61.6221 11.1215 61.6475 11.0485 61.6522 10.9727C61.6569 10.8969 61.6409 10.8212 61.6058 10.754C61.5707 10.6867 61.5178 10.6303 61.4531 10.5909C61.3883 10.5516 61.314 10.5308 61.2382 10.5307Z" fill="#253B80"/>
<path d="M69.171 5.91479H64.1917C64.027 5.91486 63.8678 5.97385 63.7426 6.08115C63.6174 6.18844 63.5345 6.337 63.5089 6.50009L61.4953 19.2985C61.486 19.3577 61.4895 19.4184 61.5058 19.4761C61.522 19.5339 61.5506 19.5875 61.5895 19.6331C61.6284 19.6787 61.6767 19.7154 61.731 19.7405C61.7854 19.7656 61.8446 19.7787 61.9045 19.7787H64.4596C64.5749 19.7785 64.6863 19.7371 64.7739 19.6619C64.8614 19.5867 64.9193 19.4827 64.9372 19.3685L65.5086 15.7407C65.5341 15.5775 65.6169 15.4288 65.7421 15.3213C65.8673 15.2139 66.0267 15.1548 66.1915 15.1547H67.7668C71.047 15.1547 72.939 13.5637 73.434 10.411C73.6575 9.03173 73.4427 7.94799 72.7985 7.18901C72.0916 6.35559 70.8373 5.91479 69.171 5.91479ZM69.7454 10.5891C69.4739 12.38 68.1089 12.38 66.7884 12.38H66.0379L66.5656 9.03538C66.5808 8.93753 66.6303 8.84834 66.7054 8.78395C66.7804 8.71956 66.876 8.68423 66.9747 8.68435H67.3191C68.2174 8.68435 69.0662 8.68435 69.5044 9.19813C69.7658 9.50464 69.8451 9.96003 69.7454 10.5891ZM84.0521 10.5315H81.6695C81.5707 10.5312 81.4751 10.5665 81.4 10.6309C81.3249 10.6953 81.2754 10.7846 81.2604 10.8825L81.1548 11.551L80.9874 11.3087C80.4713 10.5577 79.3211 10.3067 78.1723 10.3067C75.5378 10.3067 73.2884 12.307 72.8502 15.1131C72.623 16.5128 72.9455 17.8513 73.7376 18.7847C74.4655 19.6429 75.5036 20.0005 76.7404 20.0005C78.8632 20.0005 80.0403 18.6322 80.0403 18.6322L79.934 19.2963C79.9245 19.3558 79.9281 19.4166 79.9443 19.4746C79.9606 19.5326 79.9893 19.5864 80.0283 19.6322C80.0674 19.678 80.1159 19.7148 80.1705 19.7399C80.2251 19.7651 80.2845 19.778 80.3446 19.7779H82.4914C82.6562 19.7778 82.8155 19.7187 82.9407 19.6113C83.0659 19.5039 83.1487 19.3551 83.1742 19.1919L84.4634 11.0117C84.4726 10.9522 84.4688 10.8915 84.4523 10.8337C84.4358 10.7759 84.4071 10.7223 84.368 10.6767C84.3289 10.6311 84.2805 10.5945 84.2259 10.5694C84.1714 10.5443 84.1121 10.5314 84.0521 10.5315ZM80.729 15.1832C80.5004 16.5486 79.4179 17.4652 78.0391 17.4652C77.3483 17.4652 76.7936 17.2426 76.4383 16.8208C76.086 16.4019 75.9535 15.8057 76.0642 15.1416C76.2804 13.7878 77.3781 12.8412 78.7358 12.8412C79.4128 12.8412 79.9632 13.0668 80.3257 13.4922C80.6904 13.9221 80.8345 14.522 80.729 15.1832ZM86.8628 6.26582L84.8194 19.2985C84.8101 19.3577 84.8136 19.4184 84.8299 19.4761C84.8461 19.5339 84.8747 19.5875 84.9136 19.6331C84.9525 19.6787 85.0008 19.7154 85.0551 19.7405C85.1095 19.7656 85.1687 19.7787 85.2285 19.7787H87.2829C87.6243 19.7787 87.914 19.5305 87.9664 19.1926L89.9814 6.395C89.9908 6.33567 89.9872 6.27502 89.971 6.21722C89.9547 6.15941 89.9262 6.10582 89.8873 6.06012C89.8484 6.01442 89.8002 5.9777 89.7458 5.95249C89.6914 5.92728 89.6322 5.91417 89.5723 5.91406H87.2719C87.1732 5.91441 87.0778 5.95 87.0028 6.01446C86.9278 6.07892 86.8782 6.16802 86.8628 6.26582Z" fill="#179BD7"/>
<path d="M5.31001 22.2634L5.69074 19.8391L4.84265 19.8194H0.792969L3.60729 1.92996C3.61567 1.8753 3.64336 1.82548 3.68532 1.78958C3.72728 1.75368 3.78071 1.73409 3.83587 1.73438H10.6642C12.9311 1.73438 14.4955 2.20728 15.3123 3.14069C15.6952 3.57856 15.9391 4.03614 16.057 4.5397C16.1808 5.06807 16.1829 5.69934 16.0621 6.46927L16.0534 6.52547V7.01881L16.4363 7.23628C16.7286 7.38475 16.9913 7.58559 17.2116 7.82887C17.5391 8.20326 17.751 8.67908 17.8405 9.24321C17.933 9.8234 17.9024 10.5138 17.751 11.2954C17.5763 12.1945 17.2938 12.9776 16.9124 13.6183C16.5758 14.1923 16.1233 14.6895 15.5838 15.0779C15.0772 15.4384 14.4751 15.7121 13.7945 15.8872C13.1349 16.0595 12.3829 16.1463 11.5582 16.1463H11.0267C10.6467 16.1463 10.2777 16.2835 9.98793 16.5295C9.69861 16.778 9.50668 17.1215 9.44632 17.4986L9.40629 17.7168L8.73364 21.9898L8.70307 22.1467C8.69506 22.1963 8.68123 22.2211 8.66085 22.2379C8.6411 22.2541 8.61647 22.2631 8.59096 22.2634H5.31001Z" fill="#253B80"/>
<path d="M16.7967 6.58203C16.7763 6.71266 16.753 6.84622 16.7268 6.98342C15.8263 11.6183 12.7456 13.2195 8.81091 13.2195H6.80754C6.32636 13.2195 5.92088 13.5698 5.8459 14.0456L4.82019 20.567L4.52973 22.4156C4.51816 22.4889 4.52258 22.5639 4.54268 22.6353C4.56278 22.7068 4.59809 22.773 4.64617 22.8295C4.69426 22.886 4.75398 22.9313 4.82121 22.9624C4.88845 22.9935 4.96162 23.0096 5.03567 23.0097H8.58888C9.00965 23.0097 9.36708 22.7031 9.43332 22.2872L9.46827 22.1062L10.1373 17.85L10.1802 17.6165C10.2457 17.1991 10.6039 16.8925 11.0247 16.8925H11.5561C14.9986 16.8925 17.6936 15.4913 18.4812 11.4366C18.8103 9.74276 18.6399 8.32842 17.7693 7.33372C17.4933 7.02601 17.1638 6.77129 16.7967 6.58203Z" fill="#179BD7"/>
<path d="M15.8565 6.2071C15.569 6.12372 15.2765 6.05863 14.9807 6.01225C14.3964 5.92222 13.8059 5.87903 13.2147 5.88307H7.86267C7.65899 5.88291 7.46197 5.95581 7.30723 6.08859C7.15249 6.22136 7.05024 6.40526 7.01896 6.60703L5.88041 13.8363L5.84766 14.0473C5.88313 13.8171 5.99959 13.6073 6.17597 13.4558C6.35236 13.3043 6.57701 13.221 6.8093 13.2211H8.81267C12.7473 13.2211 15.8281 11.6192 16.7286 6.98506C16.7555 6.84786 16.7781 6.71431 16.7985 6.58367C16.5609 6.45875 16.3132 6.35403 16.0581 6.27059C15.9913 6.24835 15.924 6.22718 15.8565 6.2071Z" fill="#222D65"/>
<path d="M7.01815 6.60695C7.04916 6.40513 7.15136 6.22115 7.30618 6.08844C7.461 5.95573 7.65817 5.88309 7.86186 5.88373H13.2139C13.8479 5.88373 14.4398 5.92533 14.9799 6.0129C15.3455 6.07049 15.7059 6.15663 16.0581 6.27052C16.3238 6.35882 16.5705 6.46318 16.7984 6.5836C17.0663 4.87078 16.7962 3.70457 15.8724 2.64856C14.854 1.486 13.0159 0.988281 10.6638 0.988281H3.83547C3.35501 0.988281 2.94517 1.33858 2.87092 1.81514L0.0267452 19.8884C0.0134975 19.9724 0.0185378 20.0581 0.0415193 20.1399C0.0645009 20.2217 0.104878 20.2975 0.159874 20.3621C0.21487 20.4268 0.283179 20.4787 0.360102 20.5143C0.437025 20.55 0.520737 20.5685 0.60548 20.5686H4.82114L5.87961 13.8363L7.01815 6.60695Z" fill="#253B80"/>
</g>
<defs>
<clipPath id="clip0_267_1108">
<rect width="90" height="24" fill="white"/>
</clipPath>
</defs>
</svg>
