<svg width="32" height="32" viewBox="0 0 32 32" fill="none" xmlns="http://www.w3.org/2000/svg">
<path d="M26.0991 20.3493L24.171 18.4225C23.6603 17.9122 22.9679 17.6255 22.246 17.6255C21.524 17.6255 20.8317 17.9122 20.321 18.4225L19.3577 19.3859C19.1052 19.6392 18.8052 19.8402 18.4748 19.9773C18.1445 20.1144 17.7904 20.1849 17.4327 20.1849C17.0751 20.1849 16.721 20.1144 16.3907 19.9773C16.0603 19.8402 15.7603 19.6392 15.5078 19.3859L12.6195 16.4942C12.109 15.983 11.8223 15.29 11.8223 14.5674C11.8223 13.8449 12.109 13.1519 12.6195 12.6407L13.5812 11.6773C14.0917 11.166 14.3785 10.473 14.3785 9.75051C14.3785 9.02798 14.0917 8.33499 13.5812 7.82374L11.6578 5.89697C11.4218 5.61606 11.1272 5.3902 10.7947 5.23525C10.4621 5.08029 10.0997 5 9.73283 5C9.36596 5 9.00354 5.08029 8.671 5.23525C8.33846 5.3902 8.04385 5.61606 7.80785 5.89697C2.74319 10.9261 5.13331 16.7347 10.1948 21.7968C15.2563 26.8588 21.0596 29.2539 26.0975 24.2091C26.38 23.9731 26.6073 23.678 26.7632 23.3445C26.9192 23.011 27 22.6474 27 22.2792C27 21.9111 26.9192 21.5474 26.7632 21.214C26.6073 20.8805 26.3816 20.5853 26.0991 20.3493Z" stroke="#141414" stroke-width="1.5" stroke-linecap="round" stroke-linejoin="round"/>
</svg>
