<svg width="32" height="32" viewBox="0 0 32 32" fill="none" xmlns="http://www.w3.org/2000/svg">
<g clip-path="url(#clip0_503_5781)">
<path d="M4.0013 23.9993C3.64768 23.9993 3.30854 24.1398 3.05849 24.3899C2.80844 24.6399 2.66797 24.9791 2.66797 25.3327C2.66797 26.3935 3.0894 27.411 3.83954 28.1611C4.58969 28.9113 5.6071 29.3327 6.66797 29.3327H13.3346C13.6883 29.3327 14.0274 29.1922 14.2774 28.9422C14.5275 28.6921 14.668 28.353 14.668 27.9993V25.3327C14.668 24.9791 14.5275 24.6399 14.2774 24.3899C14.0274 24.1398 13.6883 23.9993 13.3346 23.9993H4.0013ZM4.0013 23.9993L6.66797 13.3327M17.3346 13.3327H5.33464C4.62739 13.3327 3.94911 13.0517 3.44902 12.5516C2.94892 12.0515 2.66797 11.3733 2.66797 10.666V5.33268C2.66797 4.62544 2.94892 3.94716 3.44902 3.44706C3.94911 2.94697 4.62739 2.66602 5.33464 2.66602H17.3346C17.6883 2.66602 18.0274 2.80649 18.2774 3.05654C18.5275 3.30659 18.668 3.64573 18.668 3.99935V11.9993C18.668 12.353 18.5275 12.6921 18.2774 12.9422C18.0274 13.1922 17.6883 13.3327 17.3346 13.3327ZM17.3346 13.3327L16.2546 17.6553C16.1827 17.9439 16.0163 18.2002 15.7819 18.3833C15.5476 18.5664 15.2587 18.6659 14.9613 18.666H10.668M18.668 5.33268H22.668C23.0216 5.33268 23.3607 5.47316 23.6108 5.72321C23.8608 5.97326 24.0013 6.31239 24.0013 6.66602V9.33268C24.0013 9.6863 23.8608 10.0254 23.6108 10.2755C23.3607 10.5255 23.0216 10.666 22.668 10.666H18.668M24.0013 7.99935H29.3346M9.33464 23.9993L12.0013 13.3327" stroke="#08A744" stroke-width="2" stroke-linecap="round" stroke-linejoin="round"/>
</g>
<defs>
<clipPath id="clip0_503_5781">
<rect width="32" height="32" fill="white"/>
</clipPath>
</defs>
</svg>
