<svg width="32" height="32" viewBox="0 0 32 32" fill="none" xmlns="http://www.w3.org/2000/svg">
<g clip-path="url(#clip0_503_5705)">
<path d="M13.0397 5.18702C13.7917 4.54702 14.1677 4.22702 14.5597 4.03902C15.0087 3.82433 15.5001 3.71289 15.9977 3.71289C16.4954 3.71289 16.9868 3.82433 17.4357 4.03902C17.8291 4.22569 18.2051 4.54569 18.9557 5.18702C19.2557 5.44302 19.4051 5.56969 19.5651 5.67635C19.9315 5.92192 20.343 6.09232 20.7757 6.17769C20.9637 6.21502 21.1597 6.23102 21.5517 6.26302C22.5371 6.34035 23.0291 6.38035 23.4397 6.52569C23.9088 6.69122 24.3349 6.95963 24.6867 7.31124C25.0385 7.66284 25.3072 8.08874 25.4731 8.55769C25.6184 8.96969 25.6571 9.46169 25.7357 10.4457C25.7664 10.8377 25.7824 11.0337 25.8197 11.223C25.9051 11.655 26.0757 12.067 26.3211 12.4324C26.4277 12.5924 26.5557 12.7417 26.8104 13.0417C27.4504 13.7937 27.7717 14.1697 27.9597 14.5617C28.1744 15.0107 28.2859 15.502 28.2859 15.9997C28.2859 16.4974 28.1744 16.9887 27.9597 17.4377C27.7731 17.8297 27.4517 18.2057 26.8104 18.9577C26.6355 19.1511 26.4721 19.3545 26.3211 19.567C26.0757 19.933 25.9053 20.3441 25.8197 20.7764C25.7824 20.9657 25.7664 21.1617 25.7357 21.5537C25.6571 22.5377 25.6184 23.031 25.4731 23.4417C25.3072 23.9106 25.0385 24.3365 24.6867 24.6881C24.3349 25.0397 23.9088 25.3082 23.4397 25.4737C23.0291 25.6204 22.5371 25.659 21.5517 25.7364C21.1597 25.7684 20.9651 25.7844 20.7757 25.8217C20.343 25.907 19.9315 26.0775 19.5651 26.323C19.353 26.4741 19.15 26.6375 18.9571 26.8124C18.2051 27.4524 17.8291 27.7724 17.4371 27.9604C16.9881 28.175 16.4967 28.2865 15.9991 28.2865C15.5014 28.2865 15.01 28.175 14.5611 27.9604C14.1677 27.7737 13.7917 27.4537 13.0411 26.8124C12.8477 26.6375 12.6442 26.4741 12.4317 26.323C12.0653 26.0775 11.6538 25.907 11.2211 25.8217C10.9643 25.7781 10.7052 25.7496 10.4451 25.7364C9.45974 25.659 8.96774 25.619 8.55707 25.4737C8.08801 25.3082 7.66194 25.0397 7.3101 24.6881C6.95826 24.3365 6.68957 23.9106 6.52374 23.4417C6.3784 23.031 6.33974 22.5377 6.26107 21.5537C6.2483 21.2932 6.22025 21.0336 6.17707 20.7764C6.09154 20.3441 5.92114 19.933 5.67573 19.567C5.56907 19.407 5.44107 19.2577 5.1864 18.9577C4.5464 18.2057 4.22507 17.8297 4.03707 17.4377C3.82237 16.9887 3.71094 16.4974 3.71094 15.9997C3.71094 15.502 3.82237 15.0107 4.03707 14.5617C4.22507 14.1697 4.54507 13.7937 5.1864 13.0417C5.44107 12.7417 5.56907 12.5924 5.67573 12.4324C5.92114 12.0663 6.09154 11.6553 6.17707 11.223C6.2144 11.0337 6.2304 10.8377 6.26107 10.4457C6.33974 9.46169 6.3784 8.96969 6.52374 8.55769C6.68971 8.0886 6.9586 7.66262 7.31068 7.311C7.66276 6.95938 8.08909 6.69105 8.5584 6.52569C8.96907 6.38035 9.46107 6.34035 10.4464 6.26302C10.8384 6.23102 11.0331 6.21502 11.2224 6.17769C11.6552 6.09232 12.0667 5.92192 12.4331 5.67635C12.5931 5.56969 12.7411 5.44302 13.0397 5.18702Z" stroke="#08A744" stroke-width="2"/>
<path d="M11.332 16.668L13.9987 19.3346L20.6654 12.668" stroke="#08A744" stroke-width="2" stroke-linecap="round" stroke-linejoin="round"/>
</g>
<defs>
<clipPath id="clip0_503_5705">
<rect width="32" height="32" fill="white"/>
</clipPath>
</defs>
</svg>
