<svg width="32" height="32" viewBox="0 0 32 32" fill="none" xmlns="http://www.w3.org/2000/svg">
<g clip-path="url(#clip0_503_5718)">
<path d="M22.6665 15.7392C22.6665 15.2779 22.6665 15.0472 22.7359 14.8419C22.9372 14.2445 23.4692 14.0139 24.0025 13.7712C24.5999 13.4979 24.8985 13.3619 25.1959 13.3379C25.5319 13.3112 25.8692 13.3832 26.1572 13.5445C26.5385 13.7579 26.8052 14.1659 27.0772 14.4965C28.3345 16.0245 28.9639 16.7885 29.1932 17.6299C29.3799 18.3099 29.3799 19.0219 29.1932 19.7005C28.8585 20.9299 27.7985 21.9592 27.0132 22.9139C26.6119 23.4005 26.4105 23.6445 26.1572 23.7872C25.8643 23.9496 25.5297 24.0216 25.1959 23.9939C24.8985 23.9699 24.5999 23.8339 24.0012 23.5605C23.4679 23.3179 22.9372 23.0872 22.7359 22.4899C22.6665 22.2845 22.6665 22.0539 22.6665 21.5939V15.7392ZM9.33321 15.7392C9.33321 15.1579 9.31721 14.6365 8.84788 14.2285C8.67721 14.0805 8.45054 13.9779 7.99854 13.7712C7.39988 13.4992 7.10121 13.3619 6.80388 13.3379C5.91454 13.2659 5.43588 13.8739 4.92388 14.4979C3.66521 16.0245 3.03588 16.7885 2.80521 17.6312C2.61962 18.3089 2.61962 19.0241 2.80521 19.7019C3.14121 20.9299 4.20254 21.9605 4.98654 22.9139C5.48121 23.5139 5.95454 24.0619 6.80388 23.9939C7.10121 23.9699 7.39988 23.8339 7.99854 23.5605C8.45188 23.3552 8.67721 23.2512 8.84788 23.1032C9.31721 22.6952 9.33321 22.1739 9.33321 21.5939V15.7392Z" stroke="#08A744" stroke-width="2" stroke-linecap="round" stroke-linejoin="round"/>
<path d="M26.6673 13.9993V11.9993C26.6673 6.84468 21.8913 2.66602 16.0007 2.66602C10.11 2.66602 5.33398 6.84468 5.33398 11.9993V13.9993M26.6673 23.3327C26.6673 29.3327 21.334 29.3327 16.0007 29.3327" stroke="#08A744" stroke-width="2" stroke-linecap="round" stroke-linejoin="round"/>
</g>
<defs>
<clipPath id="clip0_503_5718">
<rect width="32" height="32" fill="white"/>
</clipPath>
</defs>
</svg>
