<svg width="32" height="32" viewBox="0 0 32 32" fill="none" xmlns="http://www.w3.org/2000/svg">
<g clip-path="url(#clip0_504_5876)">
<path d="M23.018 10.9756C22.8931 10.8509 22.7963 10.7077 22.7274 10.5461C22.6585 10.3845 22.6245 10.2175 22.6255 10.0449C22.6255 9.80848 22.6904 9.58404 22.8202 9.37157C22.9501 9.1591 23.1208 8.98105 23.3325 8.83741C23.6581 8.60997 24.0141 8.43042 24.4006 8.29875C24.7871 8.16708 25.1686 8.0399 25.545 7.91721C25.6349 7.89227 25.7198 7.88479 25.7997 7.89476C25.8796 7.90474 25.945 7.93466 25.9959 7.98454C26.0638 8.05137 26.0918 8.20249 26.0798 8.4379C25.955 8.82394 25.8277 9.21197 25.6978 9.60199C25.568 9.99102 25.3843 10.3466 25.1466 10.6688C25.0098 10.8733 24.835 11.0409 24.6223 11.1716C24.4096 11.3022 24.1849 11.3671 23.9482 11.3661C23.7764 11.3661 23.6097 11.3327 23.4479 11.2658C23.2851 11.197 23.1428 11.1002 23.018 10.9756ZM4.41173 28C3.74663 28 3.1784 27.7636 2.70704 27.2908C2.23568 26.817 2 26.2479 2 25.5835V7.74065C2 7.07631 2.23718 6.50723 2.71153 6.03342C3.18589 5.5596 3.75562 5.32269 4.42071 5.32269H11.6859C12.3519 5.32269 12.9207 5.5596 13.392 6.03342C13.8634 6.50723 14.0991 7.07581 14.0991 7.73915V19.196C14.3427 19.0254 14.6184 18.8768 14.926 18.7501C15.2335 18.6234 15.5916 18.5601 16 18.5601C16.9437 18.5601 17.7461 18.8903 18.4072 19.5506C19.0683 20.21 19.3989 21.0115 19.3989 21.9551V24.602C19.3989 25.1406 19.5811 25.5915 19.9456 25.9546C20.3101 26.3187 20.762 26.5007 21.3013 26.5007C21.8406 26.5007 22.292 26.3187 22.6555 25.9546C23.019 25.5905 23.2012 25.1397 23.2022 24.602V17.408H21.8765V15.7082C20.7011 15.1925 19.7449 14.4289 19.0079 13.4175C18.2709 12.406 17.9019 11.2808 17.9009 10.0419C17.9009 8.35611 18.4911 6.92768 19.6715 5.75661C20.8519 4.58554 22.2785 4 23.9512 4C25.6389 4 27.069 4.58554 28.2414 5.75661C29.4138 6.92768 30 8.35611 30 10.0419C30 11.2818 29.6315 12.407 28.8945 13.4175C28.1575 14.4279 27.2008 15.191 26.0244 15.7067V17.408H24.7002V24.602C24.7002 25.5456 24.3701 26.3476 23.71 27.008C23.0489 27.6673 22.247 27.997 21.3043 27.997C20.3616 27.997 19.5587 27.6673 18.8956 27.008C18.2325 26.3486 17.9009 25.5466 17.9009 24.602V21.9536C17.9009 21.416 17.7187 20.9651 17.3542 20.601C16.9897 20.2379 16.5378 20.0564 15.9985 20.0564C15.4592 20.0564 15.0078 20.2384 14.6443 20.6025C14.2808 20.9666 14.0991 21.4175 14.0991 21.9551V25.5805C14.0991 26.2449 13.8619 26.8135 13.3875 27.2863C12.9132 27.7601 12.343 27.997 11.6769 27.997L4.41173 28ZM23.9542 14.592C25.2195 14.592 26.294 14.1496 27.1778 13.2648C28.0606 12.38 28.502 11.3057 28.502 10.0419C28.502 8.77805 28.0591 7.70474 27.1733 6.82195C26.2875 5.93915 25.212 5.49825 23.9467 5.49925C22.6814 5.50025 21.6074 5.94264 20.7246 6.82643C19.8418 7.71022 19.3999 8.78404 19.3989 10.0479C19.3979 11.3117 19.8408 12.385 20.7276 13.2678C21.6144 14.1506 22.6899 14.592 23.9542 14.592ZM4.42071 26.5022H11.6799C11.9485 26.5022 12.1692 26.416 12.342 26.2434C12.5147 26.0708 12.6011 25.8504 12.6011 25.582V21.8983L10.4815 24.017C10.3037 24.1935 10.117 24.2723 9.92125 24.2534C9.72651 24.2344 9.55974 24.1566 9.42093 24.0199C9.28112 23.8823 9.20222 23.7137 9.18425 23.5142C9.16627 23.3147 9.24517 23.1262 9.42093 22.9486L12.6011 19.7721V15.2818L10.4815 17.399C10.3037 17.5766 10.117 17.6559 9.92125 17.6369C9.72651 17.618 9.55974 17.5397 9.42093 17.402C9.28212 17.2643 9.20322 17.0958 9.18425 16.8963C9.16527 16.6968 9.24417 16.5087 9.42093 16.3322L12.6011 13.1556V8.66234L10.4815 10.781C10.3037 10.9576 10.117 11.0364 9.92125 11.0175C9.72651 10.9985 9.55974 10.9202 9.42093 10.7825C9.28212 10.6449 9.20322 10.4763 9.18425 10.2768C9.16527 10.0773 9.24417 9.88928 9.42093 9.71272L12.0573 7.0793C11.9805 6.98354 11.8891 6.91671 11.7832 6.8788C11.6774 6.8409 11.5475 6.82195 11.3938 6.82195H4.70383C4.55104 6.82195 4.42171 6.8409 4.31586 6.8788C4.21 6.91671 4.11862 6.98404 4.04173 7.0808L6.67815 9.71272C6.85491 9.88928 6.9338 10.0743 6.91483 10.2678C6.89585 10.4613 6.81696 10.6269 6.67815 10.7646C6.53934 10.9022 6.37207 10.9835 6.17633 11.0085C5.9806 11.0334 5.79435 10.9576 5.61759 10.781L3.49797 8.66234V13.1541L6.67815 16.3307C6.85491 16.5072 6.9338 16.6923 6.91483 16.8858C6.89585 17.0793 6.81696 17.2449 6.67815 17.3825C6.53934 17.5202 6.37207 17.6015 6.17633 17.6264C5.9806 17.6514 5.79435 17.5756 5.61759 17.399L3.49797 15.2803V19.7721L6.67815 22.9486C6.85491 23.1252 6.9338 23.3102 6.91483 23.5037C6.89585 23.6973 6.81696 23.8628 6.67815 24.0005C6.53934 24.1382 6.37207 24.219 6.17633 24.2429C5.9806 24.2668 5.79435 24.1915 5.61759 24.017L3.49797 21.8983V25.582C3.49797 25.8504 3.58435 26.0708 3.75712 26.2434C3.92988 26.416 4.15208 26.5022 4.42071 26.5022Z" fill="#08A744"/>
</g>
<defs>
<clipPath id="clip0_504_5876">
<rect width="32" height="32" fill="white"/>
</clipPath>
</defs>
</svg>
