<svg width="32" height="32" viewBox="0 0 32 32" fill="none" xmlns="http://www.w3.org/2000/svg">
<g clip-path="url(#clip0_503_5454)">
<path d="M13.4002 14.1428L3.9735 23.5695C3.72557 23.8172 3.52888 24.1113 3.39468 24.435C3.26048 24.7587 3.19141 25.1057 3.19141 25.4562C3.19141 25.8066 3.26048 26.1536 3.39468 26.4774C3.52888 26.8011 3.72557 27.0952 3.9735 27.3428C4.47358 27.8428 5.15173 28.1236 5.85884 28.1236C6.56594 28.1236 7.2441 27.8428 7.74417 27.3428L17.1708 17.9135M22.9242 18.4002L28.0948 23.5708C28.5948 24.0709 28.8756 24.7491 28.8756 25.4562C28.8756 26.1633 28.5948 26.8414 28.0948 27.3415C27.5948 27.8414 26.9166 28.1223 26.2095 28.1223C25.5024 28.1223 24.8242 27.8414 24.3242 27.3415L16.0455 19.0642M8.9775 7.87218L6.14684 8.81351L3.32017 4.10018L5.2055 2.21484L9.92017 5.04284L8.9775 7.87218ZM8.9775 7.87218L12.7508 11.6455" stroke="#08A744" stroke-width="2" stroke-linecap="round" stroke-linejoin="round"/>
<path d="M13.4009 14.1433C12.2755 11.2726 12.4955 7.50593 14.8155 5.18593C17.1355 2.86593 21.4155 2.35793 23.7715 3.77259L19.7182 7.82593L19.3409 11.9739L23.4889 11.5979L27.5422 7.54326C28.9582 9.90059 28.4489 14.1806 26.1289 16.4993C23.8089 18.8193 20.0435 19.0393 17.1729 17.9139" stroke="#08A744" stroke-width="2" stroke-linecap="round" stroke-linejoin="round"/>
</g>
<defs>
<clipPath id="clip0_503_5454">
<rect width="32" height="32" fill="white"/>
</clipPath>
</defs>
</svg>
