<svg width="26" height="26" viewBox="0 0 26 26" fill="none" xmlns="http://www.w3.org/2000/svg">
<path d="M10.725 6.175C10.725 4.96827 10.2456 3.81095 9.39234 2.95766C8.53905 2.10437 7.38174 1.625 6.175 1.625C4.96827 1.625 3.81095 2.10437 2.95766 2.95766C2.10437 3.81095 1.625 4.96827 1.625 6.175C1.625 7.38174 2.10437 8.53905 2.95766 9.39234C3.81095 10.2456 4.96827 10.725 6.175 10.725C7.38174 10.725 8.53905 10.2456 9.39234 9.39234C10.2456 8.53905 10.725 7.38174 10.725 6.175ZM10.725 19.825C10.725 18.6183 10.2456 17.461 9.39234 16.6077C8.53905 15.7544 7.38174 15.275 6.175 15.275C4.96827 15.275 3.81095 15.7544 2.95766 16.6077C2.10437 17.461 1.625 18.6183 1.625 19.825C1.625 21.0317 2.10437 22.189 2.95766 23.0423C3.81095 23.8956 4.96827 24.375 6.175 24.375C7.38174 24.375 8.53905 23.8956 9.39234 23.0423C10.2456 22.189 10.725 21.0317 10.725 19.825ZM24.375 6.175C24.375 4.96827 23.8956 3.81095 23.0423 2.95766C22.189 2.10437 21.0317 1.625 19.825 1.625C18.6183 1.625 17.461 2.10437 16.6077 2.95766C15.7544 3.81095 15.275 4.96827 15.275 6.175C15.275 7.38174 15.7544 8.53905 16.6077 9.39234C17.461 10.2456 18.6183 10.725 19.825 10.725C21.0317 10.725 22.189 10.2456 23.0423 9.39234C23.8956 8.53905 24.375 7.38174 24.375 6.175ZM24.375 19.825C24.375 18.6183 23.8956 17.461 23.0423 16.6077C22.189 15.7544 21.0317 15.275 19.825 15.275C18.6183 15.275 17.461 15.7544 16.6077 16.6077C15.7544 17.461 15.275 18.6183 15.275 19.825C15.275 21.0317 15.7544 22.189 16.6077 23.0423C17.461 23.8956 18.6183 24.375 19.825 24.375C21.0317 24.375 22.189 23.8956 23.0423 23.0423C23.8956 22.189 24.375 21.0317 24.375 19.825Z" stroke="white" stroke-width="2" stroke-linecap="round" stroke-linejoin="round"/>
</svg>
